<svg width="63" height="66" viewBox="0 0 63 66" fill="none" xmlns="http://www.w3.org/2000/svg">
<path d="M56.226 25.5399C50.0463 14.6784 12.5625 -7.23166 6.6006 14.6784C4.86807 21.0455 -1.82636 71.2327 25.889 53.4425V62.0567C-1.82636 76.7383 -1.88878 36.5885 1.54442 14.6784C5.85154 -16.9695 54.9152 13.7421 60.9077 25.5399C70.0463 41.42 47.05 52.6934 34.3159 59.0604V50.0717C57.3496 40.1466 59.8487 31.9069 56.226 25.5399Z" fill="#54FFBD"/>
<path d="M15.3558 35.9071C15.3558 37.722 15.894 39.496 16.9022 41.005C17.9105 42.514 19.3436 43.6901 21.0203 44.3846C22.697 45.0792 24.542 45.2609 26.322 44.9068C28.1019 44.5528 29.737 43.6788 31.0202 42.3955C32.3035 41.1122 33.1775 39.4772 33.5315 37.6973C33.8856 35.9173 33.7039 34.0723 33.0094 32.3956C32.3148 30.7189 31.1387 29.2858 29.6297 28.2775C28.1208 27.2692 26.3467 26.7311 24.5318 26.7311V32.2128C25.2625 32.2128 25.9767 32.4295 26.5843 32.8354C27.1918 33.2414 27.6653 33.8183 27.9449 34.4934C28.2245 35.1684 28.2977 35.9112 28.1551 36.6278C28.0126 37.3444 27.6607 38.0027 27.1441 38.5194C26.6274 39.036 25.9692 39.3879 25.2525 39.5304C24.5359 39.6729 23.7931 39.5998 23.1181 39.3202C22.443 39.0406 21.8661 38.5671 21.4601 37.9595C21.0542 37.352 20.8375 36.6378 20.8375 35.9071H15.3558Z" fill="#54FFBD"/>
<path d="M32.9663 20.5872L27.8686 15.3968H15.6339L21.1024 20.5872H32.9663Z" fill="#54FFBD"/>
<path d="M15.6339 15.3968V27.3534L21.1024 32.8219V20.5872L15.6339 15.3968Z" fill="#54FFBD"/>
</svg>
